<?xml version="1.0" encoding="UTF-8" standalone="no"?>
<svg
   enable-background="new 0 0 48 48"
   xml:space="preserve"
   viewBox="0 0 800 800"
   version="1.1"
   y="0px"
   x="0px"
   id="svg1069"
   sodipodi:docname="load.svg"
   inkscape:version="1.2.2 (b0a8486541, 2022-12-01)"
   width="800"
   height="800"
   xmlns:inkscape="http://www.inkscape.org/namespaces/inkscape"
   xmlns:sodipodi="http://sodipodi.sourceforge.net/DTD/sodipodi-0.dtd"
   xmlns="http://www.w3.org/2000/svg"
   xmlns:svg="http://www.w3.org/2000/svg"><sodipodi:namedview
   id="namedview1071"
   pagecolor="#ffffff"
   bordercolor="#000000"
   borderopacity="0.25"
   inkscape:showpageshadow="2"
   inkscape:pageopacity="0.0"
   inkscape:pagecheckerboard="0"
   inkscape:deskcolor="#d1d1d1"
   showgrid="false"
   inkscape:zoom="0.65660408"
   inkscape:cx="-4.5689634"
   inkscape:cy="247.48552"
   inkscape:window-width="1920"
   inkscape:window-height="1022"
   inkscape:window-x="0"
   inkscape:window-y="0"
   inkscape:window-maximized="1"
   inkscape:current-layer="svg1069" /><defs
   id="defs972"><inkscape:perspective
     sodipodi:type="inkscape:persp3d"
     inkscape:vp_x="0.28798317 : 752.42616 : 1"
     inkscape:vp_y="0.78798317 : 773.09283 : 1"
     inkscape:vp_z="0.50000003 : 0.16666667 : 0"
     inkscape:persp3d-origin="0.78798317 : 752.25949 : 1"
     id="perspective1381" /><inkscape:perspective
     sodipodi:type="inkscape:persp3d"
     inkscape:vp_x="-0.5 : 0.16666667 : 0"
     inkscape:vp_y="0 : 20.833333 : 0"
     inkscape:vp_z="0.5 : 0.16666667 : 0"
     inkscape:persp3d-origin="1.6526891 : 752.02713 : 1"
     id="perspective1265" /><linearGradient
     id="linearGradient4030"
     y2="31"
     gradientUnits="userSpaceOnUse"
     x2="21"
     gradientTransform="matrix(1.2782108,0,0,1.2782108,-6.6771854,-6.6770598)"
     y1="39"
     x1="21"><stop
       stop-color="#FFF"
       offset="0"
       id="stop957" /><stop
       stop-color="#FEFDF6"
       offset="0.10296"
       id="stop959" /><stop
       stop-color="#FCF6DE"
       offset="0.2235"
       id="stop961" /><stop
       stop-color="#F9ECB6"
       offset="0.3985"
       id="stop963" /><stop
       stop-color="#F5DE7F"
       offset="0.65276"
       id="stop965" /><stop
       stop-color="#EFCD39"
       offset="0.8298"
       id="stop967" /><stop
       stop-color="#EBBE00"
       offset="1"
       id="stop969" /></linearGradient><inkscape:perspective
     sodipodi:type="inkscape:persp3d"
     inkscape:vp_x="-0.24339712 : 0.081132373 : 0"
     inkscape:vp_y="0 : 10.141546 : 0"
     inkscape:vp_z="0.24339712 : 0.081132373 : 0"
     inkscape:persp3d-origin="1.0163752 : 752.36256 : 1"
     id="perspective1265-3" /><inkscape:perspective
     sodipodi:type="inkscape:persp3d"
     inkscape:vp_x="-0.14126664 : 0.047088881 : 0"
     inkscape:vp_y="0 : 5.8861102 : 0"
     inkscape:vp_z="0.14126664 : 0.047088881 : 0"
     inkscape:persp3d-origin="1.1228907 : 752.45738 : 1"
     id="perspective1265-9" /><inkscape:perspective
     sodipodi:type="inkscape:persp3d"
     inkscape:vp_x="-0.14126664 : 0.047088881 : 0"
     inkscape:vp_y="0 : 5.8861102 : 0"
     inkscape:vp_z="0.14126664 : 0.047088881 : 0"
     inkscape:persp3d-origin="1.0573399 : 752.19829 : 1"
     id="perspective1265-9-0" /></defs>
	<radialGradient
   id="SVGID_1_"
   gradientUnits="userSpaceOnUse"
   cy="13.761"
   cx="17.313999"
   gradientTransform="matrix(1.2782108,0,0,1.2782108,-6.6771854,-6.6770598)"
   r="27.327999">
		<stop
   stop-color="#FFD773"
   offset="0"
   id="stop974" />
		<stop
   stop-color="#FFD46E"
   offset="0.0134"
   id="stop976" />
		<stop
   stop-color="#FDC450"
   offset="0.1128"
   id="stop978" />
		<stop
   stop-color="#FCB738"
   offset="0.2174"
   id="stop980" />
		<stop
   stop-color="#FBAD27"
   offset="0.3282"
   id="stop982" />
		<stop
   stop-color="#FAA81D"
   offset="0.4492"
   id="stop984" />
		<stop
   stop-color="#FAA61A"
   offset="0.6"
   id="stop986" />
		<stop
   stop-color="#F7A01B"
   offset="0.6747"
   id="stop988" />
		<stop
   stop-color="#ED901F"
   offset="0.7723"
   id="stop990" />
		<stop
   stop-color="#DD7525"
   offset="1"
   id="stop992" />
	</radialGradient>
	
	
	
	<linearGradient
   id="SVGID_5_"
   y2="18.999001"
   gradientUnits="userSpaceOnUse"
   x2="32.171001"
   gradientTransform="matrix(1.2782108,0,0,1.2782108,-6.6771854,-6.6770598)"
   y1="25.959"
   x1="25.211">
		<stop
   stop-color="#AABEB4"
   offset="0.05"
   id="stop1003" />
		<stop
   stop-color="#ACC1B6"
   offset="0.0609"
   id="stop1005" />
		<stop
   stop-color="#BED5C6"
   offset="0.1592"
   id="stop1007" />
		<stop
   stop-color="#C9E2CF"
   offset="0.2563"
   id="stop1009" />
		<stop
   stop-color="#CDE6D2"
   offset="0.35"
   id="stop1011" />
		<stop
   stop-color="#AECCCA"
   offset="0.4837"
   id="stop1013" />
		<stop
   stop-color="#5F8AB6"
   offset="0.7742"
   id="stop1015" />
		<stop
   stop-color="#1E54A6"
   offset="1"
   id="stop1017" />
	</linearGradient>
	
	<radialGradient
   id="SVGID_6_"
   gradientUnits="userSpaceOnUse"
   cy="22.436001"
   cx="28.667"
   gradientTransform="matrix(1.2782108,0,0,1.2782108,-6.6771854,-6.6770598)"
   r="4.1876001">
		<stop
   stop-color="#E6F0E6"
   offset="0.15"
   id="stop1022" />
		<stop
   stop-color="#A0DCE6"
   offset="0.85"
   id="stop1024" />
	</radialGradient>
	
	
	
	<linearGradient
   id="SVGID_7_"
   y2="18.997"
   gradientUnits="userSpaceOnUse"
   x2="16.396"
   gradientTransform="matrix(1.2782108,0,0,1.2782108,-6.6771854,-6.6770598)"
   y1="25.957001"
   x1="9.4355001">
		<stop
   stop-color="#AABEB4"
   offset="0.05"
   id="stop1033" />
		<stop
   stop-color="#ACC1B6"
   offset="0.0609"
   id="stop1035" />
		<stop
   stop-color="#BED5C6"
   offset="0.1592"
   id="stop1037" />
		<stop
   stop-color="#C9E2CF"
   offset="0.2563"
   id="stop1039" />
		<stop
   stop-color="#CDE6D2"
   offset="0.35"
   id="stop1041" />
		<stop
   stop-color="#AECCCA"
   offset="0.4837"
   id="stop1043" />
		<stop
   stop-color="#5F8AB6"
   offset="0.7742"
   id="stop1045" />
		<stop
   stop-color="#1E54A6"
   offset="1"
   id="stop1047" />
	</linearGradient>
	
	<radialGradient
   id="SVGID_8_"
   gradientUnits="userSpaceOnUse"
   cy="22.436001"
   cx="12.893"
   gradientTransform="matrix(1.2782108,0,0,1.2782108,-6.6771854,-6.6770598)"
   r="4.1876001">
		<stop
   stop-color="#E6F0E6"
   offset="0.15"
   id="stop1052" />
		<stop
   stop-color="#A0DCE6"
   offset="0.85"
   id="stop1054" />
	</radialGradient>
	
	
	
	
	

<path
   style="fill:#000000;stroke-width:1.21796"
   d="m 211.35309,743.93402 c -24.54939,-3.65551 -46.83727,-19.73891 -57.59462,-41.56146 -8.91902,-18.09327 -8.60465,-12.53605 -8.60465,-152.11063 0,-139.57458 -0.31437,-134.01736 8.60465,-152.11063 9.17407,-18.6107 26.18446,-32.72566 47.37932,-39.31461 8.92576,-2.7748 10.24921,-2.83977 57.85323,-2.83977 h 48.71849 l 5.75295,3.38177 c 6.2947,3.70022 11.20034,10.79321 12.54204,18.13437 1.20245,6.57913 -2.1079,16.67624 -6.97949,21.28864 -7.67818,7.26965 -6.31032,7.08186 -56.38011,7.74066 -44.69494,0.5881 -46.45365,0.70052 -51.26974,3.27765 -6.44694,3.4498 -12.20509,10.06384 -13.81802,15.87197 -1.7709,6.37696 -1.7709,242.76293 0,249.13989 1.61293,5.80813 7.37108,12.42219 13.81802,15.87198 l 4.98717,2.66866 h 188.17519 188.1752 l 4.98716,-2.66866 c 6.44694,-3.44979 12.20509,-10.06385 13.81802,-15.87198 1.7709,-6.37696 1.7709,-242.76293 0,-249.13989 -1.61293,-5.80813 -7.37108,-12.42217 -13.81802,-15.87197 -4.81609,-2.57713 -6.57479,-2.68955 -51.26974,-3.27765 -35.98024,-0.47342 -46.96035,-0.98041 -49.32748,-2.27757 -18.12428,-9.93207 -18.94405,-34.6261 -1.49008,-44.8861 l 5.75295,-3.38177 h 48.7185 c 47.60401,0 48.92746,0.0649 57.85322,2.83977 21.19486,6.58895 38.20525,20.70391 47.37931,39.31461 8.91902,18.09327 8.60466,12.53605 8.60466,152.11063 0,139.57458 0.31436,134.01736 -8.60466,152.11063 -9.01038,18.27864 -25.62625,32.24277 -46.77034,39.30624 l -8.52573,2.84813 -191.2201,0.16717 c -105.17105,0.092 -194.02234,-0.25009 -197.4473,-0.76008 z"
   id="path8631"
   sodipodi:nodetypes="sssssscsssssssscccssssscscscsssscss" /><path
   d="m 389.45397,81.844078 c -5.78299,1.47587 -15.64292,10.5488 -66.65121,61.331282 -38.7697,38.59806 -61.04107,62.03026 -63.20404,66.49836 -4.49543,9.28631 -4.22056,19.98411 0.78995,30.74565 5.46852,11.74521 14.61962,17.89346 28.08214,18.86726 16.7364,1.2106 20.22022,-0.88888 49.65639,-29.92454 l 26.72386,-26.36026 v 141.45434 c 0,140.01247 0.0361,141.52902 3.54585,148.77913 12.99637,26.84689 51.17554,26.84689 64.17191,0 3.50971,-7.25012 3.54585,-8.76666 3.54585,-148.77913 V 203.00183 l 26.72386,26.36026 c 29.43617,29.03566 32.91999,31.13514 49.65638,29.92454 13.46253,-0.9738 22.61363,-7.12205 28.08215,-18.86726 5.01051,-10.76154 5.28538,-21.45934 0.78995,-30.74565 -2.16432,-4.47089 -24.41003,-27.86715 -63.20404,-66.47294 -55.39955,-55.130812 -60.45805,-59.717932 -67.82676,-61.506642 -9.19772,-2.23271 -11.61408,-2.21535 -20.88224,0.14999 z"
   style="fill:#000000;stroke-width:1.69675"
   id="path8693" /></svg>
