<?xml version="1.0" encoding="UTF-8" standalone="no"?>
<!-- Generator: Adobe Illustrator 16.1.0, SVG Export Plug-In . SVG Version: 6.00 Build 0)  -->

<svg
   version="1.1"
   id="Layer_1"
   x="0px"
   y="0px"
   width="48px"
   height="48px"
   viewBox="0 0 48 48"
   enable-background="new 0 0 48 48"
   xml:space="preserve"
   sodipodi:docname="preprocess.svg"
   inkscape:version="1.2.2 (b0a8486541, 2022-12-01)"
   xmlns:inkscape="http://www.inkscape.org/namespaces/inkscape"
   xmlns:sodipodi="http://sodipodi.sourceforge.net/DTD/sodipodi-0.dtd"
   xmlns="http://www.w3.org/2000/svg"
   xmlns:svg="http://www.w3.org/2000/svg"><defs
   id="defs15">
	
	
<radialGradient
   id="SVGID_1_"
   gradientUnits="userSpaceOnUse"
   cy="13.761"
   cx="17.313999"
   gradientTransform="matrix(1.2782108,0,0,1.2782108,-6.6771854,-6.6770598)"
   r="27.327999">
		<stop
   stop-color="#FFD773"
   offset="0"
   id="stop2085" />
		<stop
   stop-color="#FFD46E"
   offset="0.0134"
   id="stop2087" />
		<stop
   stop-color="#FDC450"
   offset="0.1128"
   id="stop2089" />
		<stop
   stop-color="#FCB738"
   offset="0.2174"
   id="stop2091" />
		<stop
   stop-color="#FBAD27"
   offset="0.3282"
   id="stop2093" />
		<stop
   stop-color="#FAA81D"
   offset="0.4492"
   id="stop2095" />
		<stop
   stop-color="#FAA61A"
   offset="0.6"
   id="stop2097" />
		<stop
   stop-color="#F7A01B"
   offset="0.6747"
   id="stop2099" />
		<stop
   stop-color="#ED901F"
   offset="0.7723"
   id="stop2101" />
		<stop
   stop-color="#DD7525"
   offset="1"
   id="stop2103" />
	</radialGradient><linearGradient
   id="SVGID_5_"
   y2="18.999001"
   gradientUnits="userSpaceOnUse"
   x2="32.171001"
   gradientTransform="matrix(1.2782108,0,0,1.2782108,-6.6771854,-6.6770598)"
   y1="25.959"
   x1="25.211">
		<stop
   stop-color="#AABEB4"
   offset="0.05"
   id="stop2114" />
		<stop
   stop-color="#ACC1B6"
   offset="0.0609"
   id="stop2116" />
		<stop
   stop-color="#BED5C6"
   offset="0.1592"
   id="stop2118" />
		<stop
   stop-color="#C9E2CF"
   offset="0.2563"
   id="stop2120" />
		<stop
   stop-color="#CDE6D2"
   offset="0.35"
   id="stop2122" />
		<stop
   stop-color="#AECCCA"
   offset="0.4837"
   id="stop2124" />
		<stop
   stop-color="#5F8AB6"
   offset="0.7742"
   id="stop2126" />
		<stop
   stop-color="#1E54A6"
   offset="1"
   id="stop2128" />
	</linearGradient><radialGradient
   id="SVGID_6_"
   gradientUnits="userSpaceOnUse"
   cy="22.436001"
   cx="28.667"
   gradientTransform="matrix(1.2782108,0,0,1.2782108,-6.6771854,-6.6770598)"
   r="4.1876001">
		<stop
   stop-color="#E6F0E6"
   offset="0.15"
   id="stop2133" />
		<stop
   stop-color="#A0DCE6"
   offset="0.85"
   id="stop2135" />
	</radialGradient><linearGradient
   id="SVGID_7_"
   y2="18.997"
   gradientUnits="userSpaceOnUse"
   x2="16.396"
   gradientTransform="matrix(1.2782108,0,0,1.2782108,-6.6771854,-6.6770598)"
   y1="25.957001"
   x1="9.4355001">
		<stop
   stop-color="#AABEB4"
   offset="0.05"
   id="stop2144" />
		<stop
   stop-color="#ACC1B6"
   offset="0.0609"
   id="stop2146" />
		<stop
   stop-color="#BED5C6"
   offset="0.1592"
   id="stop2148" />
		<stop
   stop-color="#C9E2CF"
   offset="0.2563"
   id="stop2150" />
		<stop
   stop-color="#CDE6D2"
   offset="0.35"
   id="stop2152" />
		<stop
   stop-color="#AECCCA"
   offset="0.4837"
   id="stop2154" />
		<stop
   stop-color="#5F8AB6"
   offset="0.7742"
   id="stop2156" />
		<stop
   stop-color="#1E54A6"
   offset="1"
   id="stop2158" />
	</linearGradient><radialGradient
   id="SVGID_8_"
   gradientUnits="userSpaceOnUse"
   cy="22.436001"
   cx="12.893"
   gradientTransform="matrix(1.2782108,0,0,1.2782108,-6.6771854,-6.6770598)"
   r="4.1876001">
		<stop
   stop-color="#E6F0E6"
   offset="0.15"
   id="stop2163" />
		<stop
   stop-color="#A0DCE6"
   offset="0.85"
   id="stop2165" />
	</radialGradient><linearGradient
   id="linearGradient4030"
   y2="31"
   gradientUnits="userSpaceOnUse"
   x2="21"
   gradientTransform="matrix(1.2782108,0,0,1.2782108,-6.6771854,-6.6770598)"
   y1="39"
   x1="21"><stop
     stop-color="#FFF"
     offset="0"
     id="stop2068" /><stop
     stop-color="#FEFDF6"
     offset="0.10296"
     id="stop2070" /><stop
     stop-color="#FCF6DE"
     offset="0.2235"
     id="stop2072" /><stop
     stop-color="#F9ECB6"
     offset="0.3985"
     id="stop2074" /><stop
     stop-color="#F5DE7F"
     offset="0.65276"
     id="stop2076" /><stop
     stop-color="#EFCD39"
     offset="0.8298"
     id="stop2078" /><stop
     stop-color="#EBBE00"
     offset="1"
     id="stop2080" /></linearGradient></defs><sodipodi:namedview
   id="namedview13"
   pagecolor="#ffffff"
   bordercolor="#000000"
   borderopacity="0.25"
   inkscape:showpageshadow="2"
   inkscape:pageopacity="0.0"
   inkscape:pagecheckerboard="0"
   inkscape:deskcolor="#d1d1d1"
   showgrid="false"
   inkscape:zoom="8.8999747"
   inkscape:cx="16.629261"
   inkscape:cy="29.045026"
   inkscape:window-width="1542"
   inkscape:window-height="1022"
   inkscape:window-x="2051"
   inkscape:window-y="30"
   inkscape:window-maximized="0"
   inkscape:current-layer="Layer_1" />
<g
   id="g4"
   transform="matrix(-0.82634898,0,0,0.76950787,36.258615,0.26429092)">
		<path
   fill="#333333"
   d="m 28.804198,19.574892 v -2.145 l -3.217,-1.072 -0.58,-1.613 1.518,-3.033 -1.516,-1.515 -3.033,1.516 -1.75,-0.717 -1.073,-3.2170003 h -2.144 l -1.072,3.2170003 -1.609,0.547 -3.033,-1.518 -1.5180004,1.516 1.5180004,3.033 -0.721,1.784 -3.2170004,1.072 v 2.144 l 3.2170004,1.074 0.723,1.775 -1.5200004,3.034 1.5180004,1.515 3.033,-1.516 1.609,0.553 1.072,3.219 h 2.143 l 1.074,-3.219 1.75,-0.722 3.033,1.519 1.516,-1.516 -1.516,-3.034 0.578,-1.608 z m -10.723,2.145 c -1.777,0 -3.217,-1.44 -3.217,-3.218 0,-1.776 1.439,-3.218 3.217,-3.218 1.778,0 3.217,1.441 3.217,3.218 0,1.778 -1.44,3.218 -3.217,3.218 z"
   id="path2" />
	</g><g
   id="g8"
   transform="matrix(-0.87221347,0,0,0.79212916,37.497409,-3.0819561)">
		<path
   fill="#333333"
   d="m 39.256,35.883 0.678,-1.574 -2.025,-1.808 0.082,-1.368 2.074,-1.751 -0.637,-1.592 -2.709,0.157 -1.059,-1.077 0.227,-2.704 -1.578,-0.676 -1.803,2.024 -1.355,-0.106 -1.75,-2.073 -1.594,0.638 0.156,2.706 -1.092,1.083 -2.703,-0.227 -0.678,1.577 2.027,1.804 -0.031,1.533 -2.074,1.752 0.639,1.591 2.707,-0.157 1.008,0.916 -0.229,2.705 1.576,0.676 1.805,-2.027 1.516,0.021 1.75,2.074 1.594,-0.637 -0.158,-2.707 0.934,-0.998 z M 30.697,34.074 C 29.39,33.512 28.785,32 29.347,30.693 c 0.561,-1.305 2.074,-1.91 3.381,-1.348 1.307,0.561 1.908,2.074 1.35,3.381 -0.56,1.306 -2.076,1.909 -3.381,1.348 z"
   id="path6" />
	</g>
<rect
   style="opacity:0.984793;fill:#ffffff;fill-opacity:1;stroke:none;stroke-width:5.27484;stroke-linecap:square"
   id="rect946"
   width="26.753223"
   height="18.766344"
   x="11.267567"
   y="15.874046" /><path
   fill-rule="evenodd"
   clip-rule="evenodd"
   fill="#333333"
   stroke="#333333"
   stroke-width="0.162199"
   stroke-miterlimit="10"
   d="m 10.252558,35.29847 c 0,-6.557405 0,-13.134923 0,-19.711793 0.154414,-0.314018 0.37825,-0.561859 0.726006,-0.720166 8.900216,0 17.832223,0 26.765527,0 0.779207,-0.122622 1.160051,0.530718 1.160701,1.175623 0.0045,3.850618 0.0026,7.701885 0.0026,11.550558 0,2.356434 0.002,4.71352 -0.0033,7.069306 0,0.249138 -0.03893,0.497628 -0.0571,0.724059 -0.254328,0.284174 -0.472973,0.546288 -0.847979,0.587163 -0.07008,0.0078 -0.136247,0.04736 -0.206318,0.0584 -0.07526,0.01033 -0.153766,0.0026 -0.229675,0.0026 -8.687409,0 -17.373522,0 -26.059635,0.002 -0.435344,0 -0.818134,-0.111593 -1.103606,-0.459349 -0.0532,-0.06293 -0.08109,-0.150522 -0.147277,-0.278334 z m 2.048905,-18.391489 c 0,5.689314 0,11.337104 0,16.984894 1.689472,0.06941 24.161901,0.04022 24.557019,-0.02919 0,-5.651034 0,-11.300122 0,-16.955697 -8.191079,0 -16.36529,0 -24.557019,0 z"
   id="path244" /><path
   fill-rule="evenodd"
   clip-rule="evenodd"
   fill="none"
   d="m 12.301463,16.906981 c 8.191729,0 16.36594,0 24.557019,0 0,5.655576 0,11.304663 0,16.955698 -0.395118,0.06942 -22.867547,0.09862 -24.557019,0.02919 0,-5.64779 0,-11.29558 0,-16.984893 z m 14.721884,4.408586 c -1.479259,2.298044 -2.948788,4.583761 -4.418966,6.869477 -0.04542,-0.04022 -0.0824,-0.09992 -0.111592,-0.09603 -0.198533,0.02206 -0.376952,-0.05645 -0.564456,-0.09083 -0.201127,-0.03633 -0.4042,-0.02336 -0.611167,-0.085 -0.212807,-0.06293 -0.45935,-0.002 -0.688375,-0.01686 -0.219943,-0.01427 -0.439237,-0.04801 -0.655287,-0.09212 -0.24849,-0.05255 -0.465188,0.09862 -0.701351,0.09212 -0.509306,-0.01557 -1.001744,0.04866 -1.496129,0.179718 -0.402255,0.108353 -0.808403,0.193991 -1.184057,0.378249 -0.456105,0.223836 -0.892098,0.489195 -1.275538,0.817486 -0.347106,0.297799 -0.586513,0.697458 -0.807104,1.094523 -0.143386,0.260169 -0.233568,0.549533 -0.358786,0.852521 0,0.06682 0,0.168687 0,0.263413 6.968095,0 13.921267,0 20.919855,0 -0.895342,-2.552373 -1.751107,-5.078794 -2.55951,-7.621435 -0.0038,-0.01168 -0.02077,-0.02271 -0.03374,-0.0279 -0.01362,-0.0045 -0.03114,-6.49e-4 -0.0545,-6.49e-4 -0.304935,0.41588 -0.620251,0.829813 -0.916103,1.257371 -0.293257,0.42691 -0.589758,0.851224 -0.965412,1.353393 -0.05514,-0.113539 -0.07591,-0.173228 -0.10965,-0.224483 C 30.07399,25.672891 29.739211,25.110383 29.348634,24.589398 28.806239,23.864041 28.30342,23.112084 27.784382,22.370508 27.541731,22.0234 27.288699,21.68343 27.023341,21.315561 Z m -8.304619,-1.180165 c -0.64231,0 -0.640363,0.0026 -1.319007,0.367869 -0.38344,0.206967 -0.634525,0.546289 -0.852521,0.89599 -0.19983,0.318561 -0.283525,0.716923 -0.269252,1.078304 0.02271,0.580674 0.18945,1.136695 0.621549,1.583068 0.45935,0.473623 0.984228,0.763636 1.658329,0.794778 0.506712,0.02336 0.94465,-0.119379 1.372209,-0.371113 0.360732,-0.214103 0.596895,-0.536556 0.832408,-0.860955 0.239407,-0.329589 0.161551,-0.755851 0.304935,-1.11788 -0.131057,-0.352297 -0.07008,-0.753255 -0.277685,-1.084142 -0.223187,-0.355541 -0.472975,-0.695512 -0.838248,-0.91221 -0.38863,-0.230323 -0.79348,-0.440535 -1.232717,-0.373709 z"
   id="path248"
   style="stroke-width:0.648798" /><path
   fill-rule="evenodd"
   clip-rule="evenodd"
   fill="#707070"
   stroke="#707070"
   stroke-miterlimit="10"
   d="m 27.023347,21.315567 c 0.26471,0.36722 0.518391,0.707839 0.760392,1.055595 0.519039,0.741576 1.021858,1.493534 1.564253,2.21889 0.390576,0.520985 0.725356,1.083494 1.082845,1.629133 0.03374,0.05125 0.05449,0.110945 0.10965,0.224484 0.375654,-0.50217 0.672155,-0.926484 0.965411,-1.353393 0.295853,-0.428207 0.611169,-0.841491 0.916104,-1.257371 0.02336,0 0.04022,-0.0038 0.0545,6.48e-4 0.01297,0.0052 0.02984,0.01622 0.03374,0.0279 0.808402,2.542641 1.664168,5.069063 2.559509,7.621435 -6.998588,0 -13.951111,0 -20.919855,0 0,-0.09473 0,-0.197235 0,-0.263412 0.125218,-0.303638 0.21605,-0.592353 0.358786,-0.852521 0.220592,-0.396416 0.459998,-0.796724 0.807106,-1.094523 0.383439,-0.328292 0.819432,-0.593651 1.275537,-0.817486 0.376302,-0.184259 0.782451,-0.2699 1.184056,-0.378249 0.494385,-0.131057 0.986823,-0.195937 1.496129,-0.179717 0.236163,0.0071 0.452862,-0.144682 0.701352,-0.09213 0.21605,0.04348 0.435343,0.07721 0.655286,0.09213 0.229675,0.01492 0.475569,-0.04542 0.688375,0.01687 0.206967,0.06164 0.410041,0.04866 0.611168,0.08499 0.187503,0.03439 0.365922,0.112891 0.564455,0.09083 0.02919,-0.0038 0.06682,0.05579 0.111593,0.09603 1.470826,-2.286365 2.940355,-4.571433 4.419615,-6.870126 z"
   id="path250"
   style="stroke-width:0.648798" /><g
   id="g5759"
   transform="matrix(0.01826602,0,0,0.01826602,19.039359,22.232703)"><path
     style="fill:#04a552"
     d="m -63.776952,-131.23458 c -25.600461,-9.75193 -39.969268,-23.7395 -44.620738,-43.43683 -2.18731,-9.26248 -1.33426,-26.64518 1.88458,-38.40227 4.17053,-15.23322 6.998718,-17.37937 18.236157,-13.83834 16.45984,5.18666 33.47013,16.48412 40.76287,27.07285 6.37952,9.26279 7.9987,14.76918 8.50873,28.93598 0.69352,19.26338 -3.82609,38.39831 -9.79911,41.48708 -3.95081,2.04304 -5.24944,1.88531 -14.972489,-1.81847 z m 36,-6.4196 c -1.375,-0.24832 -3.56119,-1.42454 -4.85819,-2.61382 -2.12768,-1.95097 -2.3023,-2.74885 -1.78641,-8.16234 1.31501,-13.79881 6.89452,-27.3814 14.56557,-35.45799 8.148469,-8.57924 20.4698595,-13.02004 36.07903,-13.00337 9.77788,0.0104 15.59173,1.12363 17.890709,3.42558 3.35618,3.36051 0.539431,19.64026 -5.575639,32.22501 -5.83945,12.01755 -15.48296,19.72337 -28.5335905,22.80025 -5.85354,1.38006 -21.9688395,1.83639 -27.7814795,0.78668 z m 22.1721495,-1.28088 c 11.28536,-1.63238 17.5891305,-4.57963 24.3996705,-11.40777 6.83127,-6.84892 10.54672,-13.82111 13.482759,-25.30092 4.52256,-17.68302 2.97049,-19.65845 -15.396879,-19.59669 -22.5637005,0.0759 -34.80041,6.58387 -42.88877,22.8101 -4.61017,9.24855 -8.34301,24.36449 -7.17046,29.03633 1.15181,4.58918 13.20179,6.53779 27.5736795,4.45895 z"
     id="path5423" /><path
     style="fill:#016637"
     d="m -23.776952,-138.6263 c -8.999341,-0.96649 -10.636811,-3.33599 -8.937071,-12.93243 3.02328,-17.06903 10.324841,-30.48903 19.89095,-36.5588 8.1521005,-5.17258 16.0945005,-7.07715 29.70382,-7.12291 15.02882,-0.0505 17.3423,0.97308 17.3423,7.67319 0,5.75119 -3.24267,18.15353 -6.6236,25.33346 -3.88906,8.25904 -13.24773,17.36992 -20.7042495,20.15605 -9.1075,3.40303 -19.8584005,4.61279 -30.6721495,3.45144 z"
     id="path5421" /><rect
     style="opacity:0.984793;fill:#ffffff;fill-opacity:1;stroke:none;stroke-width:4.801;stroke-linecap:square;stroke-opacity:1"
     id="rect5545"
     width="207.99849"
     height="215.3864"
     x="-147.57678"
     y="-64.887756" /><path
     style="fill:#f69321"
     d="m -60.828523,201.07256 c -56.172497,-5.30424 -104.830947,-38.21158 -129.386187,-87.5029 -19.16445,-38.470052 -22.39041,-80.164712 -9.40058,-121.500002 3.99796,-12.722 13.36784,-31.36781 21.60833,-43 8.62109,-12.16943 26.07391,-29.61984 38.23001,-38.22472 C -98.657683,-118.26199 -45.426263,-126.22577 2.6794375,-110.46752 56.528237,-92.827962 97.945037,-46.272492 109.28266,9.362188 122.25714,73.029038 95.610117,138.11221 41.776337,174.24087 c -30.22387,20.2837 -67.823,30.11606 -102.60486,26.83169 z m 37.55636,-75.41678 c 4.56165,-4.56165 4.48251,-10.83985 -0.19126,-15.17135 -2.59368,-2.40374 -2.70796,-2.41477 -25.02529,-2.41477 -13.46446,0 -23.188199,0.41128 -24.34363,1.02964 -2.58188,1.38178 -4.94461,6.15904 -4.94461,9.99762 0,2.12237 0.93886,4.06544 2.92308,6.04966 l 2.92307,2.92308 h 23.12238 c 23.11055,0 23.12361,-0.001 25.53626,-2.41388 z M -106.46121,88.952618 c 3.68681,-1.88545 5.64037,-5.14113 5.63022,-9.38296 -0.0169,-7.06783 -4.50099,-10.5 -13.71813,-10.5 -10.03849,0 -14.22783,3.09169 -14.22783,10.5 0,4.59017 1.32328,7.06794 4.77514,8.9412 3.24454,1.76075 14.41152,2.04199 17.5406,0.44176 z m 132.704278,-0.39331 c 3.674589,-1.90021 4.985989,-4.32685 4.957739,-9.17391 -0.0236,-4.04383 -2.063879,-7.3586 -5.662019,-9.1987 -1.523721,-0.77924 -17.4907705,-1.11704 -52.799661,-1.11704 -54.082449,0 -54.87672,0.0683 -57.48644,4.94461 -1.32307,2.47218 -1.32557,8.63393 -0.005,11.10237 2.582391,4.82523 3.107731,4.87029 57.274521,4.91298 43.40887,0.0342 51.22459,-0.1797 53.72036,-1.47031 z M -116.29229,49.487748 c 3.40719,-2.23247 4.97881,-7.48374 3.54237,-11.83618 -1.74222,-5.27897 -4.61998,-6.58191 -14.5373,-6.58191 -7.73771,0 -8.81777,0.23713 -10.99452,2.41388 -4.48194,4.48194 -4.48194,10.6903 0,15.17224 2.17675,2.17675 3.25681,2.41388 10.99452,2.41388 6.14057,0 9.26719,-0.44985 10.99493,-1.58191 z m 80.592257,-1.34117 c 2.2925,-2.29249 2.92308,-3.81916 2.92308,-7.07692 0,-3.25776 -0.63058,-4.78443 -2.92308,-7.07692 l -2.92307,-2.92308 h -28.122379 -28.12238 l -2.413881,2.41388 c -4.481937,4.48194 -4.481937,10.6903 0,15.17224 l 2.413881,2.41388 h 28.12238 28.122379 z m 76.23661,0.50831 c 4.75523,-4.40699 4.75523,-10.76347 0,-15.17046 l -2.60558,-2.41477 H 11.223048 -15.484903 l -2.605579,2.41477 c -3.00406,2.78406 -4.18333,6.46943 -3.25443,10.17046 0.35686,1.42188 1.82136,3.67188 3.25443,5 l 2.605579,2.41477 h 26.707951 26.707949 z m -57.997789,-36.70227 c 5.091179,-2.60365 7.359639,-9.88397 4.65462,-14.93835 -2.609641,-4.87616 -3.40528,-4.94461 -57.47036,-4.94461 -54.065078,0 -54.860718,0.0685 -57.470358,4.94461 -1.32307,2.47218 -1.32557,8.63393 -0.005,11.10237 2.58245,4.82535 3.10648,4.87029 57.290598,4.91298 35.52998,0.028 51.47278,-0.29597 53,-1.077 z m 43,0 c 3.59814,-1.8401 5.63846,-5.15487 5.662019,-9.1987 0.04386,-7.52537 -4.08878,-10.68426 -13.97776,-10.68426 -9.8889795,0 -14.0216195,3.15889 -13.9777595,10.68426 0.023,3.9412 1.99739,7.24109 5.47776,9.15506 2.6207895,1.44126 14.0249695,1.47085 16.8157405,0.0436 z m -49.00221,-40.29773 c 4.67377,-4.3315 4.75291,-10.6097 0.19126,-15.17135 -2.41265,-2.41265 -2.42571,-2.41388 -25.53626,-2.41388 h -23.12238 l -2.92307,2.92308 c -1.98422,1.98422 -2.92308,3.92729 -2.92308,6.04966 0,3.70579 2.29857,8.51934 4.74998,9.94715 1.04402,0.60808 10.869059,1.03156 24.354,1.0497 22.53158,0.0303 22.61232,0.0227 25.20955,-2.38436 z"
     id="path5425" /></g></svg>
