<?xml version="1.0" encoding="UTF-8" standalone="no"?>
<svg
   enable-background="new 0 0 48 48"
   xml:space="preserve"
   viewBox="0 0 800 800"
   version="1.1"
   y="0px"
   x="0px"
   id="svg1069"
   sodipodi:docname="save.svg"
   inkscape:version="1.2.2 (b0a8486541, 2022-12-01)"
   width="800"
   height="800"
   xmlns:inkscape="http://www.inkscape.org/namespaces/inkscape"
   xmlns:sodipodi="http://sodipodi.sourceforge.net/DTD/sodipodi-0.dtd"
   xmlns="http://www.w3.org/2000/svg"
   xmlns:svg="http://www.w3.org/2000/svg"><sodipodi:namedview
   id="namedview1071"
   pagecolor="#ffffff"
   bordercolor="#000000"
   borderopacity="0.25"
   inkscape:showpageshadow="2"
   inkscape:pageopacity="0.0"
   inkscape:pagecheckerboard="0"
   inkscape:deskcolor="#d1d1d1"
   showgrid="false"
   inkscape:zoom="0.65660408"
   inkscape:cx="-4.5689634"
   inkscape:cy="247.48552"
   inkscape:window-width="1920"
   inkscape:window-height="1022"
   inkscape:window-x="0"
   inkscape:window-y="0"
   inkscape:window-maximized="1"
   inkscape:current-layer="svg1069" /><defs
   id="defs972"><inkscape:perspective
     sodipodi:type="inkscape:persp3d"
     inkscape:vp_x="0.28798317 : 752.42616 : 1"
     inkscape:vp_y="0.78798317 : 773.09283 : 1"
     inkscape:vp_z="0.50000003 : 0.16666667 : 0"
     inkscape:persp3d-origin="0.78798317 : 752.25949 : 1"
     id="perspective1381" /><inkscape:perspective
     sodipodi:type="inkscape:persp3d"
     inkscape:vp_x="-0.5 : 0.16666667 : 0"
     inkscape:vp_y="0 : 20.833333 : 0"
     inkscape:vp_z="0.5 : 0.16666667 : 0"
     inkscape:persp3d-origin="1.6526891 : 752.02713 : 1"
     id="perspective1265" /><linearGradient
     id="linearGradient4030"
     y2="31"
     gradientUnits="userSpaceOnUse"
     x2="21"
     gradientTransform="matrix(1.2782108,0,0,1.2782108,-6.6771854,-6.6770598)"
     y1="39"
     x1="21"><stop
       stop-color="#FFF"
       offset="0"
       id="stop957" /><stop
       stop-color="#FEFDF6"
       offset="0.10296"
       id="stop959" /><stop
       stop-color="#FCF6DE"
       offset="0.2235"
       id="stop961" /><stop
       stop-color="#F9ECB6"
       offset="0.3985"
       id="stop963" /><stop
       stop-color="#F5DE7F"
       offset="0.65276"
       id="stop965" /><stop
       stop-color="#EFCD39"
       offset="0.8298"
       id="stop967" /><stop
       stop-color="#EBBE00"
       offset="1"
       id="stop969" /></linearGradient><inkscape:perspective
     sodipodi:type="inkscape:persp3d"
     inkscape:vp_x="-0.24339712 : 0.081132373 : 0"
     inkscape:vp_y="0 : 10.141546 : 0"
     inkscape:vp_z="0.24339712 : 0.081132373 : 0"
     inkscape:persp3d-origin="1.0163752 : 752.36256 : 1"
     id="perspective1265-3" /><inkscape:perspective
     sodipodi:type="inkscape:persp3d"
     inkscape:vp_x="-0.14126664 : 0.047088881 : 0"
     inkscape:vp_y="0 : 5.8861102 : 0"
     inkscape:vp_z="0.14126664 : 0.047088881 : 0"
     inkscape:persp3d-origin="1.1228907 : 752.45738 : 1"
     id="perspective1265-9" /><inkscape:perspective
     sodipodi:type="inkscape:persp3d"
     inkscape:vp_x="-0.14126664 : 0.047088881 : 0"
     inkscape:vp_y="0 : 5.8861102 : 0"
     inkscape:vp_z="0.14126664 : 0.047088881 : 0"
     inkscape:persp3d-origin="1.0573399 : 752.19829 : 1"
     id="perspective1265-9-0" /></defs>
	<radialGradient
   id="SVGID_1_"
   gradientUnits="userSpaceOnUse"
   cy="13.761"
   cx="17.313999"
   gradientTransform="matrix(1.2782108,0,0,1.2782108,-6.6771854,-6.6770598)"
   r="27.327999">
		<stop
   stop-color="#FFD773"
   offset="0"
   id="stop974" />
		<stop
   stop-color="#FFD46E"
   offset="0.0134"
   id="stop976" />
		<stop
   stop-color="#FDC450"
   offset="0.1128"
   id="stop978" />
		<stop
   stop-color="#FCB738"
   offset="0.2174"
   id="stop980" />
		<stop
   stop-color="#FBAD27"
   offset="0.3282"
   id="stop982" />
		<stop
   stop-color="#FAA81D"
   offset="0.4492"
   id="stop984" />
		<stop
   stop-color="#FAA61A"
   offset="0.6"
   id="stop986" />
		<stop
   stop-color="#F7A01B"
   offset="0.6747"
   id="stop988" />
		<stop
   stop-color="#ED901F"
   offset="0.7723"
   id="stop990" />
		<stop
   stop-color="#DD7525"
   offset="1"
   id="stop992" />
	</radialGradient>
	
	
	
	<linearGradient
   id="SVGID_5_"
   y2="18.999001"
   gradientUnits="userSpaceOnUse"
   x2="32.171001"
   gradientTransform="matrix(1.2782108,0,0,1.2782108,-6.6771854,-6.6770598)"
   y1="25.959"
   x1="25.211">
		<stop
   stop-color="#AABEB4"
   offset="0.05"
   id="stop1003" />
		<stop
   stop-color="#ACC1B6"
   offset="0.0609"
   id="stop1005" />
		<stop
   stop-color="#BED5C6"
   offset="0.1592"
   id="stop1007" />
		<stop
   stop-color="#C9E2CF"
   offset="0.2563"
   id="stop1009" />
		<stop
   stop-color="#CDE6D2"
   offset="0.35"
   id="stop1011" />
		<stop
   stop-color="#AECCCA"
   offset="0.4837"
   id="stop1013" />
		<stop
   stop-color="#5F8AB6"
   offset="0.7742"
   id="stop1015" />
		<stop
   stop-color="#1E54A6"
   offset="1"
   id="stop1017" />
	</linearGradient>
	
	<radialGradient
   id="SVGID_6_"
   gradientUnits="userSpaceOnUse"
   cy="22.436001"
   cx="28.667"
   gradientTransform="matrix(1.2782108,0,0,1.2782108,-6.6771854,-6.6770598)"
   r="4.1876001">
		<stop
   stop-color="#E6F0E6"
   offset="0.15"
   id="stop1022" />
		<stop
   stop-color="#A0DCE6"
   offset="0.85"
   id="stop1024" />
	</radialGradient>
	
	
	
	<linearGradient
   id="SVGID_7_"
   y2="18.997"
   gradientUnits="userSpaceOnUse"
   x2="16.396"
   gradientTransform="matrix(1.2782108,0,0,1.2782108,-6.6771854,-6.6770598)"
   y1="25.957001"
   x1="9.4355001">
		<stop
   stop-color="#AABEB4"
   offset="0.05"
   id="stop1033" />
		<stop
   stop-color="#ACC1B6"
   offset="0.0609"
   id="stop1035" />
		<stop
   stop-color="#BED5C6"
   offset="0.1592"
   id="stop1037" />
		<stop
   stop-color="#C9E2CF"
   offset="0.2563"
   id="stop1039" />
		<stop
   stop-color="#CDE6D2"
   offset="0.35"
   id="stop1041" />
		<stop
   stop-color="#AECCCA"
   offset="0.4837"
   id="stop1043" />
		<stop
   stop-color="#5F8AB6"
   offset="0.7742"
   id="stop1045" />
		<stop
   stop-color="#1E54A6"
   offset="1"
   id="stop1047" />
	</linearGradient>
	
	<radialGradient
   id="SVGID_8_"
   gradientUnits="userSpaceOnUse"
   cy="22.436001"
   cx="12.893"
   gradientTransform="matrix(1.2782108,0,0,1.2782108,-6.6771854,-6.6770598)"
   r="4.1876001">
		<stop
   stop-color="#E6F0E6"
   offset="0.15"
   id="stop1052" />
		<stop
   stop-color="#A0DCE6"
   offset="0.85"
   id="stop1054" />
	</radialGradient>
	
	
	
	
	

<path
   style="fill:#000000;stroke-width:1.69675"
   d="M 130.36498,723.97041 C 96.165039,718.87789 65.115617,696.47198 50.129473,666.07082 37.704322,640.86495 38.142271,648.60676 38.142271,454.16434 c 0,-194.44242 -0.437949,-186.70062 11.987202,-211.90649 12.780468,-25.9267 36.477775,-45.59036 66.004497,-54.76948 12.43454,-3.8656 14.27825,-3.9561 80.59577,-3.9561 h 67.87011 l 8.01448,4.71117 c 8.76919,5.1548 15.60327,15.0361 17.47241,25.26312 1.67514,9.16544 -2.93654,23.2318 -9.72319,29.65737 -10.69653,10.12741 -8.79095,9.86579 -78.54355,10.78358 -62.26487,0.81928 -64.71494,0.9759 -71.42428,4.56611 -8.98128,4.80594 -17.003,14.02002 -19.24998,22.11137 -2.46706,8.88379 -2.46706,338.1949 0,347.07869 2.24698,8.09135 10.2687,17.30544 19.24998,22.11137 l 6.94767,3.71774 H 399.49169 661.64 l 6.94766,-3.71774 c 8.98128,-4.80593 17.003,-14.02002 19.24998,-22.11137 2.46706,-8.88379 2.46706,-338.1949 0,-347.07869 -2.24698,-8.09135 -10.2687,-17.30543 -19.24998,-22.11137 -6.70934,-3.59021 -9.1594,-3.74683 -71.42427,-4.56611 -50.12435,-0.65953 -65.42083,-1.36582 -68.71849,-3.17291 -25.24907,-13.83644 -26.3911,-48.23788 -2.07584,-62.53116 l 8.01448,-4.71117 h 67.87011 c 66.31751,0 68.16122,0.0904 80.59576,3.9561 29.52672,9.17912 53.22403,28.84278 66.00449,54.76948 12.42515,25.20587 11.98721,17.46407 11.98721,211.90649 0,194.44242 0.43794,186.70061 -11.98721,211.90648 -12.55244,25.46412 -35.70013,44.91766 -65.15612,54.75783 l -11.87727,3.96775 -266.39018,0.23288 c -146.5146,0.12811 -270.29401,-0.34839 -275.06535,-1.05887 z M 388.4628,506.37761 c -5.78299,-1.47587 -15.64292,-10.5488 -66.65121,-61.33128 -38.7697,-38.59806 -61.04107,-62.03026 -63.20404,-66.49836 -4.49543,-9.28631 -4.22056,-19.98411 0.78995,-30.74565 5.46852,-11.74521 14.61962,-17.89346 28.08214,-18.86726 16.7364,-1.2106 20.22022,0.88888 49.65639,29.92454 l 26.72386,26.36026 V 243.76552 c 0,-140.01247 0.0361,-141.52902 3.54585,-148.779129 12.99637,-26.846887 51.17554,-26.846887 64.17191,0 3.50971,7.250119 3.54585,8.766659 3.54585,148.779129 v 141.45434 l 26.72386,-26.36026 c 29.43617,-29.03566 32.91999,-31.13514 49.65638,-29.92454 13.46253,0.9738 22.61363,7.12205 28.08215,18.86726 5.01051,10.76154 5.28538,21.45934 0.78995,30.74565 -2.16432,4.47089 -24.41003,27.86715 -63.20404,66.47294 -55.39955,55.13081 -60.45805,59.71793 -67.82676,61.50664 -9.19772,2.23271 -11.61408,2.21535 -20.88224,-0.14999 z"
   id="path8631" /></svg>
