<?xml version="1.0" encoding="UTF-8" standalone="no"?>
<svg
   enable-background="new 0 0 48 48"
   xml:space="preserve"
   viewBox="0 0 48 48"
   version="1.1"
   y="0px"
   x="0px"
   id="svg1069"
   sodipodi:docname="training.svg"
   inkscape:version="1.2.2 (b0a8486541, 2022-12-01)"
   xmlns:inkscape="http://www.inkscape.org/namespaces/inkscape"
   xmlns:sodipodi="http://sodipodi.sourceforge.net/DTD/sodipodi-0.dtd"
   xmlns:xlink="http://www.w3.org/1999/xlink"
   xmlns="http://www.w3.org/2000/svg"
   xmlns:svg="http://www.w3.org/2000/svg"><sodipodi:namedview
   id="namedview1071"
   pagecolor="#ffffff"
   bordercolor="#000000"
   borderopacity="0.25"
   inkscape:showpageshadow="2"
   inkscape:pageopacity="0.0"
   inkscape:pagecheckerboard="0"
   inkscape:deskcolor="#d1d1d1"
   showgrid="false"
   inkscape:zoom="11.436963"
   inkscape:cx="52.723788"
   inkscape:cy="19.804209"
   inkscape:window-width="1920"
   inkscape:window-height="1022"
   inkscape:window-x="0"
   inkscape:window-y="0"
   inkscape:window-maximized="1"
   inkscape:current-layer="svg1069" /><defs
   id="defs972"><linearGradient
     inkscape:collect="always"
     id="linearGradient7500"><stop
       style="stop-color:#ff8b18;stop-opacity:1;"
       offset="0"
       id="stop7496" /><stop
       style="stop-color:#ce6500;stop-opacity:0.93676794;"
       offset="1"
       id="stop7498" /></linearGradient><inkscape:perspective
     sodipodi:type="inkscape:persp3d"
     inkscape:vp_x="0.28798317 : 0.42616004 : 1"
     inkscape:vp_y="0.78798317 : 21.092826 : 1"
     inkscape:vp_z="0.50000003 : 0.16666667 : 0"
     inkscape:persp3d-origin="0.78798317 : 0.25949337 : 1"
     id="perspective1381" /><inkscape:perspective
     sodipodi:type="inkscape:persp3d"
     inkscape:vp_x="-24 : 8 : 0"
     inkscape:vp_y="0 : 1000 : 0"
     inkscape:vp_z="24 : 8 : 0"
     inkscape:persp3d-origin="79.329079 : 1.3020981 : 1"
     id="perspective1265" /><linearGradient
     id="linearGradient4030"
     y2="31"
     gradientUnits="userSpaceOnUse"
     x2="21"
     gradientTransform="matrix(1.2782108,0,0,1.2782108,-6.6771854,-6.6770598)"
     y1="39"
     x1="21"><stop
       stop-color="#FFF"
       offset="0"
       id="stop957" /><stop
       stop-color="#FEFDF6"
       offset="0.10296"
       id="stop959" /><stop
       stop-color="#FCF6DE"
       offset="0.2235"
       id="stop961" /><stop
       stop-color="#F9ECB6"
       offset="0.3985"
       id="stop963" /><stop
       stop-color="#F5DE7F"
       offset="0.65276"
       id="stop965" /><stop
       stop-color="#EFCD39"
       offset="0.8298"
       id="stop967" /><stop
       stop-color="#EBBE00"
       offset="1"
       id="stop969" /></linearGradient><inkscape:perspective
     sodipodi:type="inkscape:persp3d"
     inkscape:vp_x="-11.683062 : 3.8943539 : 0"
     inkscape:vp_y="0 : 486.79423 : 0"
     inkscape:vp_z="11.683062 : 3.8943539 : 0"
     inkscape:persp3d-origin="48.786008 : 17.402923 : 1"
     id="perspective1265-3" /><inkscape:perspective
     sodipodi:type="inkscape:persp3d"
     inkscape:vp_x="-6.7807989 : 2.2602663 : 0"
     inkscape:vp_y="0 : 282.53329 : 0"
     inkscape:vp_z="6.7807989 : 2.2602663 : 0"
     inkscape:persp3d-origin="53.898754 : 21.954098 : 1"
     id="perspective1265-9" /><inkscape:perspective
     sodipodi:type="inkscape:persp3d"
     inkscape:vp_x="-6.7807989 : 2.2602663 : 0"
     inkscape:vp_y="0 : 282.53329 : 0"
     inkscape:vp_z="6.7807989 : 2.2602663 : 0"
     inkscape:persp3d-origin="50.752313 : 9.517871 : 1"
     id="perspective1265-9-0" /><linearGradient
     inkscape:collect="always"
     xlink:href="#linearGradient7500"
     id="linearGradient7502"
     x1="71.392586"
     y1="9.7605095"
     x2="74.556519"
     y2="13.651207"
     gradientUnits="userSpaceOnUse"
     gradientTransform="translate(0,-2)" /></defs>
	<radialGradient
   id="SVGID_1_"
   gradientUnits="userSpaceOnUse"
   cy="13.761"
   cx="17.314"
   gradientTransform="matrix(1.2782108,0,0,1.2782108,-6.6771854,-6.6770598)"
   r="27.328">
		<stop
   stop-color="#FFD773"
   offset="0"
   id="stop974" />
		<stop
   stop-color="#FFD46E"
   offset="0.0134"
   id="stop976" />
		<stop
   stop-color="#FDC450"
   offset="0.1128"
   id="stop978" />
		<stop
   stop-color="#FCB738"
   offset="0.2174"
   id="stop980" />
		<stop
   stop-color="#FBAD27"
   offset="0.3282"
   id="stop982" />
		<stop
   stop-color="#FAA81D"
   offset="0.4492"
   id="stop984" />
		<stop
   stop-color="#FAA61A"
   offset="0.6"
   id="stop986" />
		<stop
   stop-color="#F7A01B"
   offset="0.6747"
   id="stop988" />
		<stop
   stop-color="#ED901F"
   offset="0.7723"
   id="stop990" />
		<stop
   stop-color="#DD7525"
   offset="1"
   id="stop992" />
	</radialGradient>
	
	
	
	<linearGradient
   id="SVGID_5_"
   y2="18.999"
   gradientUnits="userSpaceOnUse"
   x2="32.171"
   gradientTransform="matrix(1.2782108,0,0,1.2782108,-6.6771854,-6.6770598)"
   y1="25.959"
   x1="25.211">
		<stop
   stop-color="#AABEB4"
   offset="0.05"
   id="stop1003" />
		<stop
   stop-color="#ACC1B6"
   offset="0.0609"
   id="stop1005" />
		<stop
   stop-color="#BED5C6"
   offset="0.1592"
   id="stop1007" />
		<stop
   stop-color="#C9E2CF"
   offset="0.2563"
   id="stop1009" />
		<stop
   stop-color="#CDE6D2"
   offset="0.35"
   id="stop1011" />
		<stop
   stop-color="#AECCCA"
   offset="0.4837"
   id="stop1013" />
		<stop
   stop-color="#5F8AB6"
   offset="0.7742"
   id="stop1015" />
		<stop
   stop-color="#1E54A6"
   offset="1"
   id="stop1017" />
	</linearGradient>
	
	<radialGradient
   id="SVGID_6_"
   gradientUnits="userSpaceOnUse"
   cy="22.436"
   cx="28.667"
   gradientTransform="matrix(1.2782108,0,0,1.2782108,-6.6771854,-6.6770598)"
   r="4.1876">
		<stop
   stop-color="#E6F0E6"
   offset="0.15"
   id="stop1022" />
		<stop
   stop-color="#A0DCE6"
   offset="0.85"
   id="stop1024" />
	</radialGradient>
	
	
	
	<linearGradient
   id="SVGID_7_"
   y2="18.997"
   gradientUnits="userSpaceOnUse"
   x2="16.396"
   gradientTransform="matrix(1.2782108,0,0,1.2782108,-6.6771854,-6.6770598)"
   y1="25.957"
   x1="9.4355">
		<stop
   stop-color="#AABEB4"
   offset="0.05"
   id="stop1033" />
		<stop
   stop-color="#ACC1B6"
   offset="0.0609"
   id="stop1035" />
		<stop
   stop-color="#BED5C6"
   offset="0.1592"
   id="stop1037" />
		<stop
   stop-color="#C9E2CF"
   offset="0.2563"
   id="stop1039" />
		<stop
   stop-color="#CDE6D2"
   offset="0.35"
   id="stop1041" />
		<stop
   stop-color="#AECCCA"
   offset="0.4837"
   id="stop1043" />
		<stop
   stop-color="#5F8AB6"
   offset="0.7742"
   id="stop1045" />
		<stop
   stop-color="#1E54A6"
   offset="1"
   id="stop1047" />
	</linearGradient>
	
	<radialGradient
   id="SVGID_8_"
   gradientUnits="userSpaceOnUse"
   cy="22.436"
   cx="12.893"
   gradientTransform="matrix(1.2782108,0,0,1.2782108,-6.6771854,-6.6770598)"
   r="4.1876">
		<stop
   stop-color="#E6F0E6"
   offset="0.15"
   id="stop1052" />
		<stop
   stop-color="#A0DCE6"
   offset="0.85"
   id="stop1054" />
	</radialGradient>
	
	
	
	
	

<g
   id="g7762"
   transform="matrix(0.86453916,0,0,0.86453916,-36.814469,11.510358)"><path
     style="fill:#009d25;fill-opacity:1;stroke:#000000;stroke-width:1;stroke-linecap:square;stroke-dasharray:none;stroke-opacity:1"
     d="m 72.191195,1.4225368 c 0.07342,-0.1317131 0.172365,-0.2521554 0.220271,-0.3951395 0.06659,-0.19875762 0.03507,-0.49004633 0.08743,-0.69948636 0.121734,-0.48693381 0.235262,-0.96523709 0.348666,-1.47555114 0.0844,-0.3797943 0.08439,-0.780829 0.262307,-1.1366655 0.361544,-0.7230875 0.938193,-1.2997364 1.66128,-1.6612802 0.526207,-0.2631035 0.323364,-0.071608 0.786922,-0.3497432 0.07069,-0.042413 0.101232,-0.137821 0.174872,-0.1748716 1.041859,-0.5241929 2.2465,-1.2638098 3.488712,-1.0459609 0.118817,0.020837 0.106783,0.2163531 0.161818,0.3236977 0.124759,0.2433392 0.345495,0.437115 0.437179,0.6994864 0.0015,0.00419 -0.238229,1.9132144 -0.262307,1.9857543 -0.05325,0.1604209 -0.182894,0.5262453 -0.261214,0.6098626 -0.150369,0.1605403 -1.127925,0.3932347 -1.377023,0.4288378 -0.11362,0.01624 -0.409605,-0.054798 -0.524615,0 -0.03386,0.016135 -0.04308,0.070882 -0.07958,0.079575 -0.08251,0.019656 -0.174106,-0.027187 -0.254446,0 -0.09954,0.033685 -0.165719,0.1334767 -0.262307,0.1748716 -0.110453,0.047337 -0.235741,0.049435 -0.349744,0.087436 -0.185479,0.061826 -0.34491,0.1852913 -0.524614,0.2623074 -0.908307,0.3892742 -1.851715,0.73602389 -2.674696,1.28467762 -0.193656,0.12910369 -0.967732,0.87943908 -1.058921,1.00219228 -0.975783,1.3135371 -0.03155,0.3505854 -0.398381,0.7174176"
     id="path7618" /><circle
     style="fill:url(#linearGradient7502);fill-opacity:1;stroke:#000000;stroke-width:1;stroke-linecap:square;stroke-dasharray:none;stroke-opacity:1"
     id="path5131"
     cy="7.6628428"
     cx="72.174225"
     r="7.6836309" /></g><path
   style="fill:#000000;stroke-width:0.0892709"
   d="M 3.1293614,44.709356 C 2.9204358,44.502917 2.7497133,44.283793 2.7499649,44.222411 c 2.665e-4,-0.06143 -0.039668,-0.111605 -0.08881,-0.111605 -0.1055359,0 -0.1277384,-13.447925 -0.02235,-13.494787 0.036856,-0.01643 0.1382476,-0.310954 0.2253109,-0.654649 0.6307732,-2.489108 2.6912695,-4.546081 5.2461267,-5.237171 1.1147139,-0.301525 2.7649825,-0.280685 3.8625115,0.04885 1.619332,0.486117 2.836711,1.323891 3.869201,2.662673 0.458896,0.595027 1.044554,1.780493 1.225726,2.481071 0.08407,0.325266 0.167615,0.480995 0.247381,0.461397 0.06616,-0.01628 1.084533,-0.535998 2.262909,-1.154915 2.707995,-1.422337 2.715441,-1.425934 3.181634,-1.533423 0.636561,-0.146833 1.612405,-0.111309 2.230449,0.08111 0.309503,0.09636 0.584237,0.141652 0.610539,0.100651 0.05669,-0.08837 4.346215,-6.824236 5.781059,-9.078028 1.207062,-1.89599 1.137435,-1.80903 1.619333,-2.022663 0.974542,-0.432046 1.976216,0.249897 1.976216,1.345398 0,0.459651 -0.02087,0.497543 -1.863901,3.38606 -0.22688,0.355566 -0.903227,1.420132 -1.503005,2.365677 -0.59978,0.945546 -1.729457,2.719511 -2.510393,3.942144 l -1.419896,2.222974 0.160126,0.455596 c 0.547291,1.557135 0.143132,3.232477 -1.067942,4.427283 -0.522677,0.515646 -0.851614,0.719036 -2.953851,1.826408 -1.301126,0.685391 -3.289642,1.737124 -4.418921,2.337199 l -2.053228,1.091031 -0.04455,1.999691 -0.0447,1.999691 -0.245427,0.321492 c -0.134991,0.176821 -0.325814,0.347011 -0.424038,0.378183 -0.09828,0.03123 -0.178612,0.09414 -0.178612,0.139876 0,0.04574 -0.242096,0.08319 -0.537996,0.08319 -0.482061,0 -0.571166,-0.03019 -0.856868,-0.290128 -0.17537,-0.159576 -0.365114,-0.370471 -0.421655,-0.46868 -0.0638,-0.110864 -0.119746,-0.87056 -0.147425,-2.002903 l -0.04455,-1.824365 -0.44627,-0.113677 C 13.146659,40.187327 12.117735,39.609129 11.565603,39.05084 10.919688,38.397731 10.852163,38.296191 9.5917117,36.082202 8.6072082,34.352937 8.5066752,34.11056 8.552516,33.576871 c 0.046181,-0.537212 0.5787305,-1.11017 1.1277245,-1.21316 0.4174815,-0.0783 0.9854215,0.09725 1.2789825,0.395456 0.128627,0.130551 0.690158,1.040884 1.248003,2.022856 0.557831,0.981987 1.138885,1.919496 1.291239,2.08338 0.551511,0.593236 1.468578,0.893073 2.231219,0.729515 0.248506,-0.05329 1.148906,-0.470042 2.014922,-0.932594 0.861102,-0.459918 2.750728,-1.466106 4.199146,-2.235941 1.448417,-0.769835 2.709342,-1.466727 2.802045,-1.548639 0.09266,-0.08185 0.223253,-0.278213 0.290127,-0.436206 0.394909,-0.933023 -0.247114,-1.914759 -1.252191,-1.914759 -0.339965,0 -0.885747,0.256869 -3.951573,1.859816 -3.340885,1.746745 -3.585587,1.859519 -4.025566,1.855093 -0.526037,-0.0059 -0.831351,-0.179929 -1.160747,-0.663914 -0.163944,-0.240883 -0.201362,-0.41985 -0.203612,-0.973772 -0.0074,-1.832359 -0.389106,-2.922561 -1.357729,-3.87826 -0.307356,-0.303257 -0.762715,-0.66017 -1.011886,-0.793133 -1.299113,-0.693222 -2.9027411,-0.681987 -4.2379555,0.02975 -1.0697612,0.570175 -2.0102446,1.843341 -2.2276071,3.015589 -0.053878,0.290897 -0.089106,2.948256 -0.089106,6.726472 0,6.841362 0.015838,6.628588 -0.5246304,7.032851 C 4.8645465,44.833631 4.7106239,44.95302 4.6513284,45.00265 4.5919734,45.05224 4.3108307,45.09102 4.0264314,45.0888 3.5409957,45.0844 3.4861111,45.06186 3.1294945,44.7094 Z M 36.887726,25.288779 c -0.553138,-0.259784 -0.794598,-0.657431 -0.794598,-1.308557 0,-0.417881 0.04574,-0.59969 0.207889,-0.827102 0.37839,-0.530507 0.605981,-0.593266 2.336326,-0.644362 1.502147,-0.04441 1.578272,-0.05551 1.978791,-0.291 0.558556,-0.328346 1.031676,-0.900253 1.192349,-1.441269 C 42.006262,20.110473 42.004827,8.2055189 41.807002,7.5389701 41.647618,7.0022763 41.090009,6.3344545 40.568236,6.0553542 L 40.199704,5.8582255 H 27.657137 15.114571 l -0.416548,0.244864 c -0.558556,0.3283455 -1.031677,0.9002525 -1.19235,1.4412684 -0.07297,0.2456781 -0.131882,0.7972032 -0.131882,1.2342373 0,0.8900837 -0.122706,1.2821798 -0.492274,1.5728548 -0.627384,0.493503 -1.370324,0.467052 -1.945295,-0.06927 L 10.571405,9.9418882 10.520043,9.1052237 c -0.09651,-1.5703833 0.150415,-2.7256833 0.792881,-3.7103349 0.66276,-1.0157943 1.805242,-1.9093564 2.860069,-2.2369322 0.272395,-0.084666 0.508659,-0.1845176 0.525015,-0.2220547 0.04248,-0.097247 25.903457,-0.086294 25.903457,0.010361 0,0.043665 0.130551,0.1039077 0.290128,0.1339551 0.799423,0.1503406 2.054768,0.9669488 2.719289,1.7688738 0.439787,0.5307287 0.963396,1.5510523 1.055818,2.0574027 0.0336,0.1841179 0.0968,0.3347694 0.140468,0.3347694 0.04559,0 0.07934,2.9432681 0.07934,6.9184931 0,3.975226 -0.03375,6.918494 -0.07934,6.918494 -0.04366,0 -0.106868,0.150651 -0.140468,0.334769 -0.161619,0.88554 -1.005285,2.170281 -1.878095,2.860009 -1.111102,0.87805 -1.873537,1.101126 -3.92792,1.149276 -1.447514,0.03389 -1.643163,0.02057 -1.972796,-0.134252 z M 9.0440204,23.399375 C 7.9762723,23.20605 6.9313779,22.65827 6.1713269,21.893379 3.2651963,18.968732 4.5318197,14.094408 8.5083923,12.899617 c 0.7976325,-0.239654 2.3113107,-0.216459 3.0798577,0.04722 2.197901,0.753997 3.604563,2.594525 3.724856,4.873716 0.0561,1.062227 -0.08185,1.719392 -0.570516,2.718623 -0.368916,0.754382 -1.300549,1.75795 -2.022456,2.178614 -1.025105,0.597336 -2.564774,0.882816 -3.6761136,0.681602 z m 2.0391966,-3.124633 c 0.85305,-0.429604 1.303376,-1.184844 1.306514,-2.191195 0.003,-0.769746 -0.274157,-1.39781 -0.821922,-1.866683 -0.714462,-0.611546 -1.8867542,-0.7545 -2.7164027,-0.331247 -0.7724548,0.39408 -1.3696283,1.374069 -1.3696283,2.247664 0,0.978005 0.7885147,2.007861 1.7848448,2.331145 0.4277683,0.138839 1.3569732,0.04174 1.8165942,-0.189684 z"
   id="path5077"
   sodipodi:nodetypes="ccsccccsccccssscscsscsscccccscsscccccsccccccscsccsccscscccsccccccscccccscccscscscccccscssssscccccccscccsccccccscc" /><text
   xml:space="preserve"
   style="font-size:6.33729px;font-family:'TeX Gyre Chorus';-inkscape-font-specification:'TeX Gyre Chorus, Normal';fill:#9d3b00;fill-opacity:1;stroke:none;stroke-width:0.396082;stroke-linecap:square;stroke-dasharray:none;stroke-opacity:1"
   x="24.624773"
   y="43.426849"
   id="text7973"><tspan
     sodipodi:role="line"
     id="tspan7971"
     x="24.624773"
     y="43.426849"
     style="stroke-width:0.396082">みかん</tspan></text></svg>
